<svg width="12" height="12" viewBox="0 0 12 12" fill="none" xmlns="http://www.w3.org/2000/svg">
    <rect width="12" height="12" fill="#1E1E1E" />
    <g id="Navbar different OS">
        <path
            d="M-405 -203C-405 -204.105 -404.105 -205 -403 -205H1713C1714.1 -205 1715 -204.105 1715 -203V654C1715 655.105 1714.1 656 1713 656H-403C-404.105 656 -405 655.105 -405 654V-203Z"
            fill="#404040" />
        <path
            d="M-403 -204H1713V-206H-403V-204ZM1714 -203V654H1716V-203H1714ZM1713 655H-403V657H1713V655ZM-404 654V-203H-406V654H-404ZM-403 655C-403.552 655 -404 654.552 -404 654H-406C-406 655.657 -404.657 657 -403 657V655ZM1714 654C1714 654.552 1713.55 655 1713 655V657C1714.66 657 1716 655.657 1716 654H1714ZM1713 -204C1713.55 -204 1714 -203.552 1714 -203H1716C1716 -204.657 1714.66 -206 1713 -206V-204ZM-403 -206C-404.657 -206 -406 -204.657 -406 -203H-404C-404 -203.552 -403.552 -204 -403 -204V-206Z"
            fill="white" fill-opacity="0.1" />
        <g id="Navbar">
            <rect x="-324.5" y="-105.5" width="1959" height="223" rx="4.5" stroke="#9747FF" stroke-dasharray="10 5" />
            <g id="Property 1=Windows_And_Linux">
                <g id="Background">
                    <mask id="path-4-inside-1_9_2" fill="white">
                        <path d="M-305 -18H1615V30H-305V-18Z" />
                    </mask>
                    <path d="M-305 -18H1615V30H-305V-18Z" fill="#161616" />
                    <path d="M1615 29H-305V31H1615V29Z" fill="#28292A" mask="url(#path-4-inside-1_9_2)" />
                </g>
                <g id="Left Menu Stuff">
                    <g id="Group 50">
                        <rect id="Rectangle 100" width="12" height="1" fill="#A6A6A6" />
                        <rect id="Rectangle 101" y="5.5" width="12" height="1" fill="#A6A6A6" />
                        <rect id="Rectangle 102" y="11" width="12" height="1" fill="#A6A6A6" />
                    </g>
                </g>
            </g>
        </g>
    </g>
</svg>