<svg width="12" height="12" viewBox="0 0 19 22" fill="none" xmlns="http://www.w3.org/2000/svg">
    <path
        d="M9.5 0L19 5.5V16.5L9.5 22L0 16.5V5.5L9.5 0ZM9.5 2.311L2 6.65311V15.3469L9.5 19.689L17 15.3469V6.65311L9.5 2.311ZM9.5 15C7.29086 15 5.5 13.2091 5.5 11C5.5 8.79086 7.29086 7 9.5 7C11.7091 7 13.5 8.79086 13.5 11C13.5 13.2091 11.7091 15 9.5 15ZM9.5 13C10.6046 13 11.5 12.1046 11.5 11C11.5 9.8954 10.6046 9 9.5 9C8.3954 9 7.5 9.8954 7.5 11C7.5 12.1046 8.3954 13 9.5 13Z"
        fill="#A6A6A6" />
</svg>