<svg width="64" height="64" viewBox="0 0 64 64" fill="none" xmlns="http://www.w3.org/2000/svg">
<rect width="64" height="64" rx="4" fill="#111111"/>
<path d="M59.5273 17.7022L32.4677 4.1091C32.1785 3.96363 31.8202 3.96363 31.5311 4.1091L4.46893 17.7022C4.17978 17.8476 4 18.1167 4 18.4076V45.5916C4 45.8836 4.17852 46.1516 4.46893 46.297L31.5298 59.8901C31.5575 59.9043 31.5876 59.9163 31.6178 59.9273C31.6254 59.9305 31.6316 59.9338 31.6392 59.936C31.6882 59.9524 31.7398 59.9666 31.7913 59.9776C31.8051 59.9809 31.819 59.982 31.834 59.9852C31.9434 60.0049 32.0566 60.0049 32.1672 59.9852C32.181 59.9841 32.1949 59.9809 32.2099 59.9776C32.2615 59.9688 32.3118 59.9546 32.3621 59.936C32.3696 59.9327 32.3759 59.9295 32.3834 59.9273C32.4136 59.9163 32.4413 59.9043 32.4714 59.8901L59.5311 46.2981C59.8202 46.1526 60 45.8836 60 45.5926V18.4076C59.995 18.1167 59.8164 17.8476 59.5273 17.7022ZM5.87446 19.8196L18 25.9107L30.1255 32.0018L18 38.0928L5.87446 44.1828V19.8196ZM31.0621 57.7726L6.81232 45.5926L21.363 38.2842L31.0634 33.4116V57.7737H31.0621V57.7726ZM31.9987 31.059L6.81106 18.4076L31.9987 5.75737L57.1864 18.4087L31.9987 31.059ZM32.9353 57.7726V33.4105L42.6358 38.2832L57.1864 45.5916L32.9353 57.7726ZM58.1218 44.1795L45.9962 38.0885L33.8732 31.9996L45.9987 25.9085L58.1243 19.8175L58.1218 44.1795Z" fill="#F6F6F6"/>
</svg>
