<svg width="20" height="21" viewBox="0 0 20 21" fill="none" xmlns="http://www.w3.org/2000/svg">
<path d="M11.8182 20.4751L9.27273 17.0605H4.54545C4.04338 17.0605 3.63636 16.6237 3.63636 16.0849V5.45321C3.63636 4.9144 4.04338 4.4776 4.54545 4.4776H19.0909C19.593 4.4776 20 4.9144 20 5.45321V16.0849C20 16.6237 19.593 17.0605 19.0909 17.0605H14.3636L11.8182 20.4751ZM13.4897 15.1092H18.1818V6.42881H5.45455V15.1092H10.1466L11.8182 17.3516L13.4897 15.1092ZM0.909091 0.475098H16.3636V2.42632H1.81818V13.158H0V1.45071C0 0.911898 0.407018 0.475098 0.909091 0.475098Z" fill="currentColor"/>
</svg>
