<svg width="20" height="20" viewBox="0 0 20 20" fill="none" xmlns="http://www.w3.org/2000/svg">
<path id="Vector" d="M3.54563 20C1.58743 20 0 18.4126 0 16.4544C0 14.4962 1.58743 12.9087 3.54563 12.9087C5.1515 12.9087 6.50803 13.9764 6.94418 15.4405L12.663 15.4407V13.4153L14.689 13.4146V7.5836L12.4168 5.31033H6.58475V7.33706H0.506519V1.25884H6.58475V3.28427H12.4168L15.7021 0L20 4.29795L16.7151 7.58157V13.4146L18.7412 13.4153V19.4935H12.663V17.4668L6.94436 17.4677C6.5084 18.9322 5.15173 20 3.54563 20ZM3.54563 14.9348C2.7064 14.9348 2.02608 15.6152 2.02608 16.4544C2.02608 17.2937 2.7064 17.9739 3.54563 17.9739C4.38486 17.9739 5.06519 17.2937 5.06519 16.4544C5.06519 15.6152 4.38486 14.9348 3.54563 14.9348ZM16.7151 15.4413H14.689V17.4674H16.7151V15.4413ZM15.7021 2.86529L14.2694 4.29795L15.7021 5.7306L17.1347 4.29795L15.7021 2.86529ZM4.55867 3.28491H2.53259V5.31099H4.55867V3.28491Z" fill="currentColor"/>
</svg>
