<svg width="13" height="12" viewBox="0 0 13 12" fill="none" xmlns="http://www.w3.org/2000/svg">
<path id="Vector" d="M8.04762 1.4625C8.88098 1.4625 9.55655 0.807714 9.55655 0H10.253C10.253 0.807714 10.9285 1.4625 11.7619 1.4625V2.1375C10.9285 2.1375 10.253 2.79229 10.253 3.6H9.55655C9.55655 2.79229 8.88098 2.1375 8.04762 2.1375V1.4625ZM0 5.4C2.05134 5.4 3.71429 3.78823 3.71429 1.8H4.95238C4.95238 3.78823 6.61533 5.4 8.66667 5.4V6.6C6.61533 6.6 4.95238 8.21178 4.95238 10.2H3.71429C3.71429 8.21178 2.05134 6.6 0 6.6V5.4ZM2.39943 6C3.21111 6.43656 3.88293 7.08768 4.33333 7.8744C4.78373 7.08768 5.45556 6.43656 6.26724 6C5.45556 5.56344 4.78373 4.91232 4.33333 4.12561C3.88293 4.91232 3.21111 5.56344 2.39943 6ZM10.0595 7.2C10.0595 8.27694 9.15875 9.15 8.04762 9.15V10.05C9.15875 10.05 10.0595 10.9231 10.0595 12H10.9881C10.9881 10.9231 11.8889 10.05 13 10.05V9.15C11.8889 9.15 10.9881 8.27694 10.9881 7.2H10.0595Z" fill="currentColor"/>
</svg>
