<svg width="20" height="21" viewBox="0 0 20 21" fill="none" xmlns="http://www.w3.org/2000/svg">
<path d="M18.8889 20.4751H1.11111C0.497467 20.4751 0 20.0274 0 19.4751V1.4751C0 0.922818 0.497467 0.475098 1.11111 0.475098H18.8889C19.5026 0.475098 20 0.922818 20 1.4751V19.4751C20 20.0274 19.5026 20.4751 18.8889 20.4751ZM17.7778 18.4751V2.4751H2.22222V18.4751H17.7778ZM4.44444 4.4751H8.88889V8.4751H4.44444V4.4751ZM4.44444 10.4751H15.5556V12.4751H4.44444V10.4751ZM4.44444 14.4751H15.5556V16.4751H4.44444V14.4751ZM11.1111 5.4751H15.5556V7.4751H11.1111V5.4751Z" fill="currentColor"/>
</svg>
