<svg width="14" height="14" viewBox="0 0 14 14" fill="none" xmlns="http://www.w3.org/2000/svg">
<path d="M2.33333 1.55556C1.90378 1.55556 1.55556 1.90378 1.55556 2.33333C1.55556 2.76288 1.90378 3.11111 2.33333 3.11111C2.76288 3.11111 3.11111 2.76288 3.11111 2.33333C3.11111 1.90378 2.76288 1.55556 2.33333 1.55556ZM0 2.33333C0 1.04467 1.04467 0 2.33333 0C3.62199 0 4.66667 1.04467 4.66667 2.33333C4.66667 3.34928 4.01737 4.21358 3.11111 4.53389V4.66667C3.11111 5.5258 3.80756 6.22222 4.66667 6.22222H9.33333C10.1925 6.22222 10.8889 5.5258 10.8889 4.66667V4.53389C9.98262 4.21358 9.33333 3.34928 9.33333 2.33333C9.33333 1.04467 10.378 0 11.6667 0C12.9554 0 14 1.04467 14 2.33333C14 3.34928 13.3507 4.21358 12.4444 4.53389V4.66667C12.4444 6.38486 11.0515 7.77778 9.33333 7.77778H7.77778V9.4661C8.68404 9.78639 9.33333 10.6507 9.33333 11.6667C9.33333 12.9554 8.2887 14 7 14C5.7113 14 4.66667 12.9554 4.66667 11.6667C4.66667 10.6507 5.31596 9.78639 6.22222 9.4661V7.77778H4.66667C2.94845 7.77778 1.55556 6.38486 1.55556 4.66667V4.53389C0.649297 4.21358 0 3.34928 0 2.33333ZM11.6667 1.55556C11.2371 1.55556 10.8889 1.90378 10.8889 2.33333C10.8889 2.76288 11.2371 3.11111 11.6667 3.11111C12.0962 3.11111 12.4444 2.76288 12.4444 2.33333C12.4444 1.90378 12.0962 1.55556 11.6667 1.55556ZM7 10.8889C6.57043 10.8889 6.22222 11.2371 6.22222 11.6667C6.22222 12.0962 6.57043 12.4444 7 12.4444C7.42957 12.4444 7.77778 12.0962 7.77778 11.6667C7.77778 11.2371 7.42957 10.8889 7 10.8889Z" fill="currentColor"/>
</svg>
