<svg width="20" height="20" viewBox="0 0 20 20" fill="none" xmlns="http://www.w3.org/2000/svg">
<path d="M4.5612 13.5668C5.79451 14.0557 6.66667 15.2593 6.66667 16.6667C6.66667 18.5077 5.17428 20 3.33333 20C1.49239 20 0 18.5077 0 16.6667C0 15.2153 0.927567 13.9806 2.22222 13.523V6.47699C0.927567 6.0194 0 4.78469 0 3.33333C0 1.49239 1.49239 0 3.33333 0C5.17428 0 6.66667 1.49239 6.66667 3.33333C6.66667 4.78469 5.7391 6.0194 4.44444 6.47699V9.99956C5.37296 9.30211 6.5271 8.88889 7.77778 8.88889H12.2222C13.7594 8.88889 15.0536 7.84833 15.4388 6.43323C14.2054 5.94431 13.3333 4.74068 13.3333 3.33333C13.3333 1.49239 14.8257 0 16.6667 0C18.5077 0 20 1.49239 20 3.33333C20 4.81467 19.0337 6.07032 17.6971 6.50436C17.2469 9.12056 14.967 11.1111 12.2222 11.1111H7.77778C6.24059 11.1111 4.94643 12.1517 4.5612 13.5668ZM3.33333 15.5556C2.71969 15.5556 2.22222 16.053 2.22222 16.6667C2.22222 17.2803 2.71969 17.7778 3.33333 17.7778C3.94698 17.7778 4.44444 17.2803 4.44444 16.6667C4.44444 16.053 3.94698 15.5556 3.33333 15.5556ZM3.33333 2.22222C2.71969 2.22222 2.22222 2.71969 2.22222 3.33333C2.22222 3.94698 2.71969 4.44444 3.33333 4.44444C3.94698 4.44444 4.44444 3.94698 4.44444 3.33333C4.44444 2.71969 3.94698 2.22222 3.33333 2.22222ZM16.6667 2.22222C16.053 2.22222 15.5556 2.71969 15.5556 3.33333C15.5556 3.94698 16.053 4.44444 16.6667 4.44444C17.2803 4.44444 17.7778 3.94698 17.7778 3.33333C17.7778 2.71969 17.2803 2.22222 16.6667 2.22222Z" fill="#A6A6A6"/>
</svg>
