<svg width="18" height="18" viewBox="0 0 18 18" fill="none" xmlns="http://www.w3.org/2000/svg">
<path fill-rule="evenodd" clip-rule="evenodd" d="M9 18C4.02943 18 0 13.9705 0 9C0 4.02943 4.02943 0 9 0C13.9705 0 18 4.02943 18 9L17.9556 9.9H10.7724H7.22763C7.36299 12.0949 7.99002 14.1567 9 15.9768V18ZM5.42458 9.9C5.54159 12.0368 6.07269 14.0633 6.93902 15.9007C4.24475 15.0972 2.2122 12.7589 1.8557 9.9H5.42458ZM5.42458 8.1H1.8557C2.2122 5.24115 4.24475 2.9028 6.93902 2.0993C6.07269 3.93666 5.54159 5.96319 5.42458 8.1ZM10.7724 8.1H7.22763C7.36299 5.9051 7.99002 3.84323 9 2.02319C10.01 3.84323 10.637 5.9051 10.7724 8.1ZM12.5754 8.1C12.4584 5.96319 11.9273 3.93666 11.061 2.0993C13.7552 2.9028 15.7878 5.24115 16.1443 8.1H12.5754Z" fill="#787878"/>
<path d="M17.2 13.6798H17.6C17.821 13.6798 18 13.841 18 14.0398V17.6398C18 17.8386 17.821 17.9998 17.6 17.9998H11.2C10.9791 17.9998 10.8 17.8386 10.8 17.6398V14.0398C10.8 13.841 10.9791 13.6798 11.2 13.6798H11.6V13.3198C11.6 11.928 12.8537 10.7998 14.4 10.7998C15.9464 10.7998 17.2 11.928 17.2 13.3198V13.6798ZM11.6 14.3998V17.2798H17.2V14.3998H11.6ZM14 15.1198H14.8V16.5598H14V15.1198ZM16.4 13.6798V13.3198C16.4 12.3257 15.5046 11.5198 14.4 11.5198C13.2955 11.5198 12.4 12.3257 12.4 13.3198V13.6798H16.4Z" fill="#787878"/>
</svg>
