<svg width="12" height="12" viewBox="0 0 12 12" fill="none" xmlns="http://www.w3.org/2000/svg">
<path id="Help" d="M6 12C2.68629 12 0 9.31368 0 6C0 2.68629 2.68629 0 6 0C9.31368 0 12 2.68629 12 6C12 9.31368 9.31368 12 6 12ZM6 10.8C8.65098 10.8 10.8 8.65098 10.8 6C10.8 3.34903 8.65098 1.2 6 1.2C3.34903 1.2 1.2 3.34903 1.2 6C1.2 8.65098 3.34903 10.8 6 10.8ZM5.4 7.8H6.6V9H5.4V7.8ZM6.6 6.81306V7.2H5.4V6.3C5.4 5.96862 5.66862 5.7 6 5.7C6.49704 5.7 6.9 5.29704 6.9 4.8C6.9 4.30294 6.49704 3.9 6 3.9C5.56338 3.9 5.19936 4.21094 5.11728 4.62346L3.94039 4.38808C4.13182 3.42551 4.9812 2.7 6 2.7C7.1598 2.7 8.1 3.6402 8.1 4.8C8.1 5.7513 7.46742 6.55488 6.6 6.81306Z" fill="currentColor"/>
</svg>
