<svg width="20" height="21" viewBox="0 0 20 21" fill="none" xmlns="http://www.w3.org/2000/svg">
<path d="M10 20.4751C4.47715 20.4751 0 15.9979 0 10.4751C0 4.95225 4.47715 0.475098 10 0.475098C15.5228 0.475098 20 4.95225 20 10.4751C20 15.9979 15.5228 20.4751 10 20.4751ZM10 18.4751C14.4183 18.4751 18 14.8934 18 10.4751C18 6.05682 14.4183 2.4751 10 2.4751C5.58172 2.4751 2 6.05682 2 10.4751C2 14.8934 5.58172 18.4751 10 18.4751ZM9 5.4751H11V7.4751H9V5.4751ZM9 9.4751H11V15.4751H9V9.4751Z" fill="currentColor"/>
</svg>
