s<svg width="17" height="12" viewBox="0 0 17 12" fill="none" xmlns="http://www.w3.org/2000/svg">
    <path id="Vector"
        d="M13.4177 10.9091C16.1336 8.19783 16.1336 3.80212 13.4177 1.09091L14.5104 0C17.8299 3.3137 17.8299 8.68627 14.5104 12L13.4177 10.9091ZM3.5824 1.09091C0.866475 3.80212 0.866475 8.19783 3.5824 10.9091L2.4896 12C-0.829866 8.68627 -0.829866 3.3137 2.4896 0L3.5824 1.09091ZM11.232 8.72716C12.7409 7.22094 12.7409 4.77889 11.232 3.27264L12.3248 2.18173C14.4372 4.29045 14.4372 7.70939 12.3248 9.81805L11.232 8.72716ZM5.76801 3.27264C4.25915 4.77889 4.25915 7.22094 5.76801 8.72716L4.6752 9.81805C2.56281 7.70939 2.56281 4.29045 4.6752 2.18173L5.76801 3.27264ZM8.50001 7.54277C9.35357 7.54277 10.0455 6.85199 10.0455 5.99999C10.0455 5.14792 9.35357 4.45722 8.50001 4.45722C7.64645 4.45722 6.95455 5.14792 6.95455 5.99999C6.95455 6.85199 7.64645 7.54277 8.50001 7.54277Z"
        fill="currentColor" />
</svg>