<svg width="20" height="19" viewBox="0 0 20 19" fill="none" xmlns="http://www.w3.org/2000/svg">
<path d="M0.909091 11.9545L4.4664 9.90909L8.02372 11.9545V16.0455L4.4664 18.0909L0.909091 16.0455V11.9545ZM1.658 12.3834V15.6166L4.4664 17.2314L7.27481 15.6166V12.3834L4.4664 10.7686L1.658 12.3834Z" fill="#A6A6A6"/>
<path d="M1.52893 12.292L4.42149 10.5739L7.31405 12.292V15.7284L4.42149 17.4466L1.52893 15.7284V12.292ZM2.13789 12.6523V15.3682L4.42149 16.7246L6.70509 15.3682V12.6523L4.42149 11.2958L2.13789 12.6523Z" fill="#A6A6A6"/>
<path d="M0 11.5L4.54545 9L9.09091 11.5V16.5L4.54545 19L0 16.5V11.5ZM0.956938 12.0241V15.9759L4.54545 17.9495L8.13397 15.9759V12.0241L4.54545 10.0505L0.956938 12.0241Z" fill="#A6A6A6"/>
<path d="M0.792011 11.9125L4.48806 9.8125L8.18411 11.9125V16.1125L4.48806 18.2125L0.792011 16.1125V11.9125ZM1.57013 12.3528V15.6722L4.48806 17.3301L7.406 15.6722V12.3528L4.48806 10.6949L1.57013 12.3528Z" fill="#A6A6A6"/>
<path d="M11.8183 11.9545L15.3756 9.90909L18.9329 11.9545V16.0455L15.3756 18.0909L11.8183 16.0455V11.9545ZM12.5672 12.3834V15.6166L15.3756 17.2314L18.184 15.6166V12.3834L15.3756 10.7686L12.5672 12.3834Z" fill="#A6A6A6"/>
<path d="M12.4381 12.292L15.3307 10.5739L18.2232 12.292V15.7284L15.3307 17.4466L12.4381 15.7284V12.292ZM13.0471 12.6523V15.3682L15.3307 16.7246L17.6143 15.3682V12.6523L15.3307 11.2958L13.0471 12.6523Z" fill="#A6A6A6"/>
<path d="M10.9092 11.5L15.4546 9L20.0001 11.5V16.5L15.4546 19L10.9092 16.5V11.5ZM11.8661 12.0241V15.9759L15.4546 17.9495L19.0431 15.9759V12.0241L15.4546 10.0505L11.8661 12.0241Z" fill="#A6A6A6"/>
<path d="M11.7012 11.9125L15.3972 9.8125L19.0933 11.9125V16.1125L15.3972 18.2125L11.7012 16.1125V11.9125ZM12.4793 12.3528V15.6722L15.3972 17.3301L18.3152 15.6722V12.3528L15.3972 10.6949L12.4793 12.3528Z" fill="#A6A6A6"/>
<path d="M6.36353 2.95455L9.92084 0.909091L13.4782 2.95455V7.04545L9.92084 9.09091L6.36353 7.04545V2.95455ZM7.11243 3.38338V6.61661L9.92084 8.23145L12.7292 6.61661V3.38338L9.92084 1.76855L7.11243 3.38338Z" fill="#A6A6A6"/>
<path d="M6.98336 3.29205L9.87592 1.57386L12.7685 3.29205V6.72841L9.87592 8.44659L6.98336 6.72841V3.29205ZM7.59232 3.65227V6.36818L9.87592 7.72464L12.1595 6.36818V3.65227L9.87592 2.29581L7.59232 3.65227Z" fill="#A6A6A6"/>
<path d="M5.45459 2.5L10 0L14.5455 2.5V7.5L10 10L5.45459 7.5V2.5ZM6.41153 3.02414V6.97586L10 8.94954L13.5886 6.97586V3.02414L10 1.05045L6.41153 3.02414Z" fill="#A6A6A6"/>
<path d="M6.2466 2.9125L9.94265 0.8125L13.6387 2.9125V7.1125L9.94265 9.2125L6.2466 7.1125V2.9125ZM7.02472 3.35277V6.67222L9.94265 8.33012L12.8606 6.67222V3.35277L9.94265 1.69488L7.02472 3.35277Z" fill="#A6A6A6"/>
</svg>
