<svg width="18" height="20" viewBox="0 0 18 20" fill="none" xmlns="http://www.w3.org/2000/svg">
<path d="M9.47368 12.621V14.6109C8.88101 14.4003 8.24334 14.2857 7.57895 14.2857C4.43964 14.2857 1.89474 16.8441 1.89474 20H0C0 15.7921 3.39321 12.381 7.57895 12.381C8.2332 12.381 8.86813 12.4643 9.47368 12.621ZM7.57895 11.4286C4.43842 11.4286 1.89474 8.87143 1.89474 5.71429C1.89474 2.55714 4.43842 0 7.57895 0C10.7195 0 13.2632 2.55714 13.2632 5.71429C13.2632 8.87143 10.7195 11.4286 7.57895 11.4286ZM7.57895 9.52381C9.67263 9.52381 11.3684 7.81905 11.3684 5.71429C11.3684 3.60952 9.67263 1.90476 7.57895 1.90476C5.48526 1.90476 3.78947 3.60952 3.78947 5.71429C3.78947 7.81905 5.48526 9.52381 7.57895 9.52381ZM13.2632 15.2381V12.381H15.1579V15.2381H18V17.1429H15.1579V20H13.2632V17.1429H10.4211V15.2381H13.2632Z" fill="#A6A6A6"/>
</svg>
