<svg width="14" height="15" viewBox="0 0 14 15" fill="none" xmlns="http://www.w3.org/2000/svg">
<path d="M1.88277 0.175471C2.88131 -0.204878 4.03912 0.0331025 4.83835 0.88942C5.74606 1.86195 5.90939 3.33 5.32829 4.48084L14 13.7729L12.8548 15L4.18287 5.70845C3.10864 6.3315 1.73803 6.15667 0.830129 5.18394C0.0306714 4.32737 -0.191347 3.08641 0.164075 2.01634L1.97533 3.95693C2.44969 4.46517 3.21878 4.46517 3.69314 3.95693C4.1675 3.44869 4.1675 2.62467 3.69314 2.11643L1.88277 0.175471ZM10.2781 1.80967L12.8548 0.275915L14 1.50292L12.5685 4.26368L11.1369 4.57043L9.41915 6.41097L8.27395 5.18394L9.99174 3.34343L10.2781 1.80967ZM4.83835 8.86495L5.98356 10.0919L1.68903 14.6932C1.3728 15.032 0.860066 15.032 0.54383 14.6932C0.250179 14.3786 0.229206 13.8824 0.480902 13.5419L0.54383 13.4662L4.83835 8.86495Z" fill="#A6A6A6"/>
</svg>
